<svg width="25" height="24" viewBox="0 0 25 24" fill="none" xmlns="http://www.w3.org/2000/svg">
<g id="line">
<path id="Vector" d="M12.5 1.5C18.5651 1.5 23.5 5.504 23.5 10.4265C23.5 12.3969 22.7369 14.1706 21.1419 15.9182C18.8346 18.5747 13.6742 21.8101 12.5 22.3051C11.3587 22.7864 11.4907 22.0342 11.543 21.7372L11.5471 21.7125L11.7039 20.7706C11.741 20.4901 11.7795 20.0542 11.6681 19.7765C11.5444 19.4699 11.0576 19.3104 10.7001 19.2334C5.41325 18.5362 1.5 14.8389 1.5 10.4265C1.5 5.504 6.43625 1.5 12.5 1.5ZM8.40525 12.0682H6.30838V8.26225C6.30838 8.2056 6.28597 8.15125 6.24604 8.11106C6.20611 8.07087 6.1519 8.04811 6.09525 8.04775H5.3225C5.29433 8.04775 5.26644 8.0533 5.24041 8.06408C5.21439 8.07486 5.19074 8.09066 5.17083 8.11057C5.15091 8.13049 5.13511 8.15414 5.12433 8.18016C5.11355 8.20619 5.108 8.23408 5.108 8.26225V13.0555C5.108 13.1119 5.13137 13.1655 5.1685 13.2026V13.204L5.17125 13.2067L5.174 13.2095C5.21388 13.2478 5.26718 13.2691 5.3225 13.2686H8.40525C8.5235 13.2686 8.61838 13.1724 8.61838 13.0541V12.2841C8.61856 12.256 8.61319 12.228 8.60257 12.2019C8.59196 12.1758 8.57631 12.1521 8.55652 12.132C8.53673 12.112 8.51319 12.096 8.48723 12.0851C8.46128 12.0742 8.43342 12.0684 8.40525 12.0682ZM9.49288 8.04775C9.43599 8.04775 9.38143 8.07035 9.3412 8.11057C9.30097 8.1508 9.27838 8.20536 9.27838 8.26225V13.0555C9.27838 13.1737 9.37463 13.2686 9.49288 13.2686H10.2656C10.3839 13.2686 10.4787 13.1724 10.4787 13.0555V8.26225C10.4788 8.2056 10.4563 8.15125 10.4164 8.11106C10.3765 8.07087 10.3223 8.04811 10.2656 8.04775H9.49288ZM14.8045 8.04775C14.7476 8.04775 14.6931 8.07035 14.6528 8.11057C14.6126 8.1508 14.59 8.20536 14.59 8.26225V11.1085L12.3941 8.144C12.3886 8.13678 12.3826 8.12989 12.3762 8.12337C12.3719 8.11856 12.3673 8.1126 12.3625 8.10825L12.3584 8.10412C12.3537 8.09961 12.3486 8.09548 12.3433 8.09175L12.335 8.08625L12.3309 8.0835C12.3287 8.0819 12.3264 8.08051 12.324 8.07937L12.313 8.0725H12.3103L12.3061 8.06975L12.2924 8.06425L12.2869 8.0615C12.2824 8.05987 12.2778 8.05849 12.2731 8.05737H12.2704L12.2662 8.056L12.2539 8.05325H12.2456L12.2415 8.05187H12.236L12.2333 8.0505H11.444C11.3873 8.0505 11.333 8.07291 11.2928 8.11284C11.2526 8.15277 11.2299 8.20697 11.2295 8.26362V13.0569C11.2295 13.1751 11.3258 13.27 11.444 13.27H12.214C12.3336 13.27 12.4299 13.1737 12.4299 13.0569V10.2106L14.6299 13.1806C14.6445 13.2011 14.6627 13.2188 14.6835 13.2329L14.6849 13.2342L14.6986 13.2425L14.7041 13.2452C14.7077 13.2473 14.7113 13.2492 14.7151 13.2507L14.7247 13.2549L14.7316 13.2576C14.7362 13.2591 14.7408 13.2605 14.7454 13.2617H14.7495C14.7674 13.2669 14.7859 13.2697 14.8045 13.27H15.5745C15.6941 13.27 15.7904 13.1737 15.7904 13.0569V8.26225C15.7904 8.20536 15.7678 8.1508 15.7276 8.11057C15.6873 8.07035 15.6328 8.04775 15.5759 8.04775H14.8045ZM20.0501 9.03362V8.26362C20.0503 8.23546 20.0449 8.20753 20.0343 8.18143C20.0237 8.15534 20.0081 8.13159 19.9883 8.11154C19.9685 8.0915 19.9449 8.07555 19.919 8.0646C19.893 8.05366 19.8652 8.04793 19.837 8.04775H16.7543C16.6988 8.04782 16.6455 8.06952 16.6057 8.10825H16.6044L16.603 8.111L16.6003 8.11512C16.5619 8.15452 16.5402 8.20724 16.5397 8.26225V13.0555C16.5397 13.1119 16.5631 13.1655 16.6003 13.2026L16.603 13.2067L16.6057 13.2095C16.6457 13.2477 16.699 13.2689 16.7543 13.2686H19.837C19.9553 13.2686 20.0501 13.1724 20.0501 13.0541V12.2841C20.0503 12.256 20.0449 12.228 20.0343 12.2019C20.0237 12.1758 20.0081 12.1521 19.9883 12.132C19.9685 12.112 19.9449 12.096 19.919 12.0851C19.893 12.0742 19.8652 12.0684 19.837 12.0682H17.7387V11.2584H19.8356C19.9539 11.2584 20.0487 11.1621 20.0487 11.0439V10.2739C20.0489 10.2457 20.0436 10.2178 20.033 10.1917C20.0223 10.1656 20.0067 10.1418 19.9869 10.1218C19.9671 10.1017 19.9436 10.0858 19.9176 10.0749C19.8917 10.0639 19.8638 10.0582 19.8356 10.058H17.7387V9.24812H19.8356C19.9539 9.24812 20.0487 9.15187 20.0487 9.03362H20.0501Z" fill="#53B6B7"/>
</g>
</svg>
