<svg width="24" height="24" viewBox="0 0 24 24" fill="none" xmlns="http://www.w3.org/2000/svg">
<g id="&#240;&#159;&#166;&#134; icon &#34;map_outline&#34;">
<g id="Vector">
<path fill-rule="evenodd" clip-rule="evenodd" d="M18.5 10.1692C18.5 6.45616 15.5604 3.50002 12 3.50002C8.43959 3.50002 5.5 6.45616 5.5 10.1692C5.5 12.0771 6.33318 13.8438 7.66691 15.6055C8.72543 17.0038 9.99839 18.2771 11.2845 19.5635C11.523 19.8021 11.7619 20.0411 12.0001 20.2815C12.2275 20.052 12.4566 19.823 12.686 19.5935C13.9529 18.3268 15.2307 17.049 16.3 15.6391C17.649 13.8603 18.5 12.0719 18.5 10.1692ZM12 2.00002C16.4183 2.00002 20 5.65749 20 10.1692C20 14.4052 16.602 17.8013 13.7062 20.6954C13.364 21.0374 13.0288 21.3724 12.7071 21.7009C12.3166 22.0997 11.6834 22.0997 11.2929 21.7009C10.9598 21.3608 10.6152 21.0162 10.2652 20.6663C7.3215 17.7232 4 14.4024 4 10.1692C4 5.65749 7.58173 2.00002 12 2.00002Z" fill="#666666"/>
<path d="M14.0414 10.0129C14.0414 11.1175 13.146 12.0129 12.0414 12.0129C10.9369 12.0129 10.0414 11.1175 10.0414 10.0129C10.0414 8.90831 10.9369 8.01288 12.0414 8.01288C13.146 8.01288 14.0414 8.90831 14.0414 10.0129Z" fill="#666666"/>
</g>
</g>
</svg>
