<svg width="40" height="40" viewBox="0 0 40 40" fill="none" xmlns="http://www.w3.org/2000/svg">
<g id="Vector">
<path d="M40 20C40 31.0457 31.0457 40 20 40C8.9543 40 0 31.0457 0 20C0 8.9543 8.9543 0 20 0C31.0457 0 40 8.9543 40 20Z" fill="white"/>
<path fill-rule="evenodd" clip-rule="evenodd" d="M20 38.5C30.2173 38.5 38.5 30.2173 38.5 20C38.5 9.78273 30.2173 1.5 20 1.5C9.78273 1.5 1.5 9.78273 1.5 20C1.5 30.2173 9.78273 38.5 20 38.5ZM20 40C31.0457 40 40 31.0457 40 20C40 8.9543 31.0457 0 20 0C8.9543 0 0 8.9543 0 20C0 31.0457 8.9543 40 20 40Z" fill="#53B6B7"/>
<path fill-rule="evenodd" clip-rule="evenodd" d="M16.4697 12.9697C16.7626 12.6768 17.2374 12.6768 17.5303 12.9697L24.0303 19.4697C24.3232 19.7626 24.3232 20.2374 24.0303 20.5303L17.5303 27.0303C17.2374 27.3232 16.7626 27.3232 16.4697 27.0303C16.1768 26.7374 16.1768 26.2626 16.4697 25.9697L22.4393 20L16.4697 14.0303C16.1768 13.7374 16.1768 13.2626 16.4697 12.9697Z" fill="#53B6B7"/>
</g>
</svg>
