<svg width="24" height="24" viewBox="0 0 24 24" fill="none" xmlns="http://www.w3.org/2000/svg">
<g id="calendar">
<g id="Rectangle 305">
<mask id="path-1-inside-1_875_5163" fill="white">
<rect x="2.5" y="5" width="19" height="16" rx="0.75"/>
</mask>
<rect x="2.5" y="5" width="19" height="16" rx="0.75" stroke="#4A4A4A" stroke-width="3" mask="url(#path-1-inside-1_875_5163)"/>
</g>
<path id="Line 5" d="M6.75 3.25C6.75 2.83579 6.41421 2.5 6 2.5C5.58579 2.5 5.25 2.83579 5.25 3.25L6.75 3.25ZM5.25 3.25L5.25 6L6.75 6L6.75 3.25L5.25 3.25Z" fill="#4A4A4A"/>
<path id="Line 6" d="M18.75 3.25C18.75 2.83579 18.4142 2.5 18 2.5C17.5858 2.5 17.25 2.83579 17.25 3.25L18.75 3.25ZM17.25 3.25L17.25 6L18.75 6L18.75 3.25L17.25 3.25Z" fill="#4A4A4A"/>
<rect id="Rectangle 306" x="4" y="5" width="16" height="4" fill="#4A4A4A"/>
<path id="Vector 237" d="M8.5 13.5L10.7197 15.7197C11.0126 16.0126 11.4874 16.0126 11.7803 15.7197L16 11.5" stroke="#4A4A4A" stroke-width="1.5" stroke-linecap="round"/>
</g>
</svg>
