<svg width="24" height="25" viewBox="0 0 24 25" fill="none" xmlns="http://www.w3.org/2000/svg">
<g id="&#240;&#159;&#166;&#134; icon &#34;facebook_outline&#34;">
<path id="Union" fill-rule="evenodd" clip-rule="evenodd" d="M13.3847 21.9393C14.1112 21.8218 14.6452 21.1945 14.6452 20.4586V15.5912H15.942C16.6857 15.5912 17.3172 15.0462 17.4259 14.3104L17.8668 11.3253C17.9305 10.8939 17.8034 10.4561 17.5184 10.126C17.2335 9.79588 16.819 9.60611 16.3829 9.60611H14.6464V8.44031C14.6464 8.39659 14.649 8.36052 14.6526 8.33177C14.6823 8.3284 14.7209 8.32586 14.7695 8.32586H16.5C17.3284 8.32586 18 7.65429 18 6.82586V4.28483C18 3.52828 17.4358 2.89004 16.6851 2.79629C16.356 2.7564 16.0263 2.72138 15.6963 2.69058C15.1459 2.63922 14.4132 2.58334 13.7954 2.58334C12.3388 2.58334 10.9754 3.04823 9.98004 4.08057C8.98963 5.10775 8.53111 6.5225 8.53111 8.1015V9.60739H7.5C6.67157 9.60739 6 10.279 6 11.1074V14.0925C6 14.9209 6.67157 15.5925 7.5 15.5925H8.52862V20.4586C8.52862 21.1945 9.06256 21.8218 9.78908 21.9393C10.3757 22.0342 10.9762 22.0833 11.5869 22.0833C12.1976 22.0833 12.7981 22.0342 13.3847 21.9393ZM13.7954 4.08334C14.8866 4.08334 16.5 4.28483 16.5 4.28483V6.82586H14.7695C13.5326 6.82586 13.1464 7.62282 13.1464 8.44031V11.1061H16.3829L15.942 14.0912H13.1452V20.4586C12.6375 20.5407 12.117 20.5833 11.5869 20.5833C11.0568 20.5833 10.5363 20.5407 10.0286 20.4586V14.0925H7.5V11.1074H10.0311V8.1015C10.0311 5.51299 11.5196 4.08334 13.7954 4.08334Z" fill="#4D94BD"/>
</g>
</svg>
