<svg width="24" height="25" viewBox="0 0 24 25" fill="none" xmlns="http://www.w3.org/2000/svg">
<g id="&#240;&#159;&#166;&#134; icon &#34;phone_outline&#34;">
<path id="Vector 242 (Stroke)" fill-rule="evenodd" clip-rule="evenodd" d="M7.59278 3.58928C7.59296 3.58924 7.59312 3.5892 7.75393 4.32176L7.59278 3.58928C7.88993 3.52405 8.1974 3.64471 8.37057 3.89485L11.5526 8.49105C11.6716 8.66302 11.7134 8.87691 11.668 9.08107L10.9359 8.91795C11.668 9.08107 11.668 9.08068 11.668 9.08107L11.6676 9.08264L11.6672 9.08438L11.6663 9.08836L11.6639 9.09833L11.657 9.12597C11.6514 9.14772 11.6436 9.17605 11.6334 9.21006C11.613 9.27795 11.5826 9.36936 11.5394 9.47686C11.4535 9.69032 11.3133 9.9764 11.0936 10.2694C10.7492 10.7286 10.2143 11.1941 9.43015 11.4213C9.64931 12.5183 10.1263 13.4116 10.796 14.0813C11.4655 14.7508 12.3585 15.2277 13.455 15.447C13.6731 14.683 14.1112 14.1444 14.5396 13.7868C14.8169 13.5553 15.0884 13.4001 15.2921 13.3019C15.3946 13.2525 15.4818 13.2165 15.5467 13.192C15.5792 13.1797 15.6063 13.1701 15.6271 13.1631L15.6536 13.1545L15.6631 13.1515L15.667 13.1503L15.6686 13.1498C15.669 13.1497 15.6701 13.1493 15.8857 13.8677L15.6701 13.1493C15.8886 13.0838 16.125 13.1212 16.3126 13.2511L20.9088 16.433C21.1531 16.6022 21.2745 16.8996 21.2183 17.1914L20.4818 17.0497C21.2183 17.1914 21.2184 17.1912 21.2183 17.1914L21.218 17.1934L21.2173 17.1967L21.2152 17.2072L21.2079 17.2432C21.2015 17.2737 21.1923 17.3168 21.18 17.3709C21.1556 17.4789 21.119 17.6313 21.0694 17.8141C20.9709 18.1776 20.8182 18.6716 20.603 19.1808C20.3901 19.6845 20.1021 20.2363 19.7206 20.6932C19.3408 21.148 18.815 21.5705 18.1239 21.6796C14.4314 22.2626 10.403 20.2291 7.48879 17.3148C4.57456 14.4006 2.54103 10.3723 3.12404 6.67966C3.23077 6.00366 3.66146 5.49021 4.10739 5.12268C4.55989 4.74974 5.10802 4.46004 5.60949 4.24175C6.1166 4.02101 6.60946 3.85903 6.97255 3.75258C7.15508 3.69907 7.30718 3.65891 7.41491 3.63183C7.46882 3.61829 7.51177 3.60798 7.54201 3.60089L7.5777 3.59265L7.58802 3.59033L7.59123 3.58962L7.59278 3.58928ZM19.6342 17.375L15.8068 14.7253C15.713 14.7793 15.6072 14.8495 15.5008 14.9383C15.1864 15.2008 14.8604 15.627 14.8181 16.3385C14.806 16.5418 14.7118 16.7314 14.5571 16.8639C14.4024 16.9963 14.2005 17.0601 13.9978 17.0406C12.2835 16.8761 10.8171 16.2237 9.73536 15.142C8.65363 14.0603 8.00122 12.5939 7.83673 10.8796C7.81728 10.6769 7.88109 10.475 8.01351 10.3203C8.14592 10.1656 8.33555 10.0714 8.53883 10.0593C9.25953 10.0165 9.6578 9.68378 9.89363 9.36935C9.98323 9.24988 10.0504 9.13062 10.0994 9.02731L7.43588 5.17997C7.42232 5.18389 7.40854 5.1879 7.39455 5.192C7.06987 5.28719 6.64018 5.42905 6.20817 5.6171C5.77051 5.80761 5.36296 6.03166 5.0614 6.2802C4.75327 6.53415 4.63153 6.7499 4.60569 6.9136C4.12809 9.93852 5.80685 13.5116 8.54945 16.2542C11.2921 18.9968 14.8651 20.6756 17.89 20.1979C18.0893 20.1665 18.3181 20.0325 18.5693 19.7317C18.8187 19.4331 19.0381 19.0302 19.2214 18.5968C19.4023 18.1688 19.5345 17.7433 19.6217 17.4215C19.626 17.4058 19.6301 17.3903 19.6342 17.375ZM10.2053 8.74863C10.2052 8.74879 10.2053 8.74842 10.2053 8.74863V8.74863ZM16.1079 14.584L16.1059 14.5847C16.1074 14.5842 16.1079 14.584 16.1079 14.584Z" fill="#666666"/>
</g>
</svg>
