<svg width="24" height="24" viewBox="0 0 24 24" fill="none" xmlns="http://www.w3.org/2000/svg">
<g id="&#240;&#159;&#166;&#134; icon &#34;screenshot_outline&#34;">
<g id="Vector">
<path fill-rule="evenodd" clip-rule="evenodd" d="M2.5 15C2.91421 15 3.25 15.3358 3.25 15.75V21H8.5C8.91421 21 9.25 21.3358 9.25 21.75C9.25 22.1642 8.91421 22.5 8.5 22.5H3.25C2.42157 22.5 1.75 21.8284 1.75 21V15.75C1.75 15.3358 2.08579 15 2.5 15Z" fill="#53B6B7"/>
<path fill-rule="evenodd" clip-rule="evenodd" d="M14.75 21.75C14.75 21.3358 15.0858 21 15.5 21H20.75V15.75C20.75 15.3358 21.0858 15 21.5 15C21.9142 15 22.25 15.3358 22.25 15.75V21C22.25 21.8284 21.5784 22.5 20.75 22.5H15.5C15.0858 22.5 14.75 22.1642 14.75 21.75Z" fill="#53B6B7"/>
<path fill-rule="evenodd" clip-rule="evenodd" d="M21.5 9.50002C21.0858 9.50002 20.75 9.16423 20.75 8.75002V3.50002L15.5 3.50001C15.0858 3.50001 14.75 3.16423 14.75 2.75001C14.75 2.3358 15.0858 2.00001 15.5 2.00001L20.75 2.00002C21.5784 2.00002 22.25 2.67159 22.25 3.50002L22.25 8.75002C22.25 9.16423 21.9142 9.50002 21.5 9.50002Z" fill="#53B6B7"/>
<path fill-rule="evenodd" clip-rule="evenodd" d="M9.25 2.75C9.25 3.16421 8.91421 3.5 8.5 3.5H3.25L3.25 8.75C3.25 9.16421 2.91421 9.5 2.5 9.5C2.08579 9.5 1.75 9.16421 1.75 8.75L1.75 3.5C1.75 2.67157 2.42157 2 3.25 2L8.5 2C8.91421 2 9.25 2.33579 9.25 2.75Z" fill="#53B6B7"/>
<path fill-rule="evenodd" clip-rule="evenodd" d="M9.14215 6.71154C9.41544 6.26924 9.89828 6 10.4182 6H13.5818C14.1017 6 14.5846 6.26924 14.8579 6.71154L15.4182 7.61842H17.25C18.0784 7.61842 18.75 8.28999 18.75 9.11842V16.25C18.75 17.0784 18.0784 17.75 17.25 17.75H6.75C5.92157 17.75 5.25 17.0784 5.25 16.25V9.11842C5.25 8.28999 5.92157 7.61842 6.75 7.61842H8.5818L9.14215 6.71154ZM13.5818 7.5H10.4182L9.63803 8.76265C9.50138 8.9838 9.25996 9.11842 9 9.11842H6.75V16.25H17.25V9.11842H15C14.74 9.11842 14.4986 8.9838 14.362 8.76265L13.5818 7.5Z" fill="#53B6B7"/>
<path fill-rule="evenodd" clip-rule="evenodd" d="M12 10.75C11.1716 10.75 10.5 11.4216 10.5 12.25C10.5 13.0784 11.1716 13.75 12 13.75C12.8284 13.75 13.5 13.0784 13.5 12.25C13.5 11.4216 12.8284 10.75 12 10.75ZM9 12.25C9 10.5931 10.3431 9.25 12 9.25C13.6569 9.25 15 10.5931 15 12.25C15 13.9069 13.6569 15.25 12 15.25C10.3431 15.25 9 13.9069 9 12.25Z" fill="#53B6B7"/>
</g>
</g>
</svg>
