<svg width="40" height="40" viewBox="0 0 40 40" fill="none" xmlns="http://www.w3.org/2000/svg">
<g id="&#240;&#159;&#166;&#134; icon &#34;warning-triangle_outline&#34;">
<g id="Union">
<path d="M18.7499 25.4167V17.9167C18.7499 17.2263 19.3095 16.6667 19.9999 16.6667C20.6903 16.6667 21.2499 17.2263 21.2499 17.9167V25.4167C21.2499 26.107 20.6903 26.6667 19.9999 26.6667C19.3095 26.6667 18.7499 26.107 18.7499 25.4167Z" fill="#53B6B7"/>
<path d="M21.2499 29.5833C21.2499 30.2737 20.6903 30.8333 19.9999 30.8333C19.3095 30.8333 18.7499 30.2737 18.7499 29.5833C18.7499 28.893 19.3095 28.3333 19.9999 28.3333C20.6903 28.3333 21.2499 28.893 21.2499 29.5833Z" fill="#53B6B7"/>
<path fill-rule="evenodd" clip-rule="evenodd" d="M19.9999 3.33311C20.3274 3.33341 20.6476 3.46259 20.884 3.69922C20.9703 3.78538 21.0422 3.88268 21.0989 3.98741L37.7446 33.5336C37.8023 33.6316 37.847 33.7382 37.8764 33.851C37.9148 33.998 37.9254 34.1486 37.91 34.2956C37.8914 34.4771 37.834 34.647 37.7462 34.797C37.6585 34.9475 37.5385 35.0812 37.3892 35.1867C37.2693 35.2719 37.1337 35.3364 36.9875 35.3751C36.8741 35.4053 36.7585 35.4188 36.644 35.4167H3.35579C3.24128 35.4188 3.12567 35.4053 3.01226 35.3751C2.86614 35.3364 2.73051 35.2719 2.61055 35.1867C2.46097 35.081 2.3407 34.9469 2.25298 34.796C2.16589 34.6468 2.10882 34.478 2.09003 34.2978C2.07424 34.1493 2.08488 33.9972 2.12401 33.8488C2.15336 33.7368 2.19783 33.631 2.25512 33.5337L18.9009 3.98741C18.9576 3.88268 19.0295 3.78538 19.1158 3.69922C19.3522 3.46259 19.6724 3.33341 19.9999 3.33311ZM19.9999 7.12997L5.47218 32.9167H34.5276L19.9999 7.12997Z" fill="#53B6B7"/>
</g>
</g>
</svg>
